<?xml version="1.0" standalone="no"?><!DOCTYPE svg PUBLIC "-//W3C//DTD SVG 1.1//EN" "http://www.w3.org/Graphics/SVG/1.1/DTD/svg11.dtd"><svg t="1560497128010" class="icon" style="" viewBox="0 0 1025 1024" version="1.1" xmlns="http://www.w3.org/2000/svg" p-id="6107" xmlns:xlink="http://www.w3.org/1999/xlink" width="64.0625" height="64"><defs><style type="text/css"></style></defs><path d="M904.196298 523.408481c-55.384594 17.041413-85.207067-21.301767-85.207067-21.301767-125.680424-89.46742-264.141908 10.650883-264.141908 10.650883-157.633074-115.029541-281.183321 31.95265-281.183322 31.952651 12.78106-19.17159 21.301767-110.769187 21.301767-110.769188 12.78106-115.029541 61.775124-217.278021 61.775124-217.278021 8.520707-48.994064 63.9053-42.603534 63.9053-42.603533 25.56212 19.17159 55.384594 21.301767 55.384594 21.301766 51.12424 14.911237 61.775124 0 61.775123 0 8.520707 31.95265 27.692297 19.17159 27.692297 19.17159 38.34318-19.17159 10.650883-51.12424 10.650884-51.12424-14.911237-17.041413 8.520707-25.56212 8.520706-25.56212 21.301767-8.520707 14.911237-21.301767 14.911237-21.301767L548.456793 1.515195c-51.12424-10.650883-166.153781 38.34318-166.153781 38.34318-97.988127 21.301767-136.331307 136.331307-136.331307 136.331307S-30.951263 540.449894 5.26174 651.219081c36.213004 108.639011 200.236608 123.550247 200.236608 123.550248 70.29583 34.082827 146.982191 46.863887 146.98219 46.863887 144.852014 8.520707 272.662615-46.863887 272.662615-46.863887-2.130177 87.337244 57.51477 161.893428 89.467421 195.976254 55.384594-40.473357 234.319435-191.715901 189.585724-447.337102z" fill="#00c5c2" p-id="6108"></path><path d="M1023.486192 499.976537c-48.994064-2.130177-115.029541 23.431943-115.029541 23.431944h-4.260353c44.73371 253.491025-134.201131 406.863745-191.715901 447.337102 10.650883 12.78106 19.17159 19.17159 19.17159 19.17159 323.786855-170.414134 291.834205-489.940636 291.834205-489.940636z" fill="#00c5c2" p-id="6109"></path><path d="M584.669796 555.361131s6.39053 2.130177 14.911237 8.520707c8.520707 6.39053 21.301767 17.041413 34.082827 31.95265 10.650883 14.911237 21.301767 36.213004 29.822473 59.644947 8.520707 23.431943 12.78106 46.863887 21.301767 68.165653 14.911237 44.73371 42.603534 85.207067 68.165654 108.639011 12.78106 12.78106 25.56212 21.301767 34.082827 25.56212 8.520707 4.260353 14.911237 6.39053 14.911237 6.39053s-6.39053 0-17.041414-2.130177-27.692297-6.39053-42.603533-19.17159c-17.041413-10.650883-34.082827-25.56212-48.994064-44.73371-14.911237-19.17159-27.692297-42.603534-36.213004-66.035477-8.520707-23.431943-12.78106-51.12424-17.041413-72.426007-4.260353-21.301767-12.78106-40.473357-19.17159-57.51477-8.520707-17.041413-14.911237-29.822473-23.431944-36.213004-6.39053-8.520707-12.78106-10.650883-12.78106-10.650883zM288.575238 678.911378s19.17159 4.260353 48.994064 8.520707 68.165654 8.520707 104.378657 6.39053c8.520707 0 19.17159 0 27.692297-2.130177s19.17159-2.130177 25.56212-4.260353c8.520707-2.130177 17.041413-4.260353 23.431943-6.39053 8.520707-2.130177 14.911237-4.260353 21.301767-8.520707 6.39053-4.260353 12.78106-6.39053 17.041414-8.520707 4.260353-2.130177 8.520707-6.39053 12.78106-8.520706 6.39053-4.260353 12.78106-6.39053 12.78106-6.39053s0 6.39053-6.39053 12.78106-14.911237 17.041413-27.692297 25.56212c-6.39053 4.260353-12.78106 8.520707-21.301767 12.78106-8.520707 4.260353-17.041413 8.520707-25.56212 10.650883-19.17159 6.39053-38.34318 8.520707-59.644947 10.650884-21.301767 0-40.473357 0-59.644947-4.260354-19.17159-2.130177-36.213004-8.520707-48.994064-14.911236-27.692297-10.650883-44.73371-23.431943-44.73371-23.431944zM216.149231 563.881838s-2.130177-4.260353-6.39053-10.650884c-4.260353-6.39053-10.650883-17.041413-14.911237-31.95265-4.260353-14.911237-8.520707-29.822473-8.520706-48.994064 0-19.17159 2.130177-38.34318 6.39053-57.51477 6.39053-19.17159 12.78106-36.213004 21.301766-53.254417 8.520707-14.911237 19.17159-29.822473 27.692297-40.473357 19.17159-21.301767 36.213004-31.95265 36.213004-31.95265s-2.130177 4.260353-6.39053 10.650884c-4.260353 6.39053-10.650883 17.041413-17.041414 27.692296-12.78106 23.431943-27.692297 57.51477-36.213003 91.597598-4.260353 17.041413-6.39053 34.082827-8.520707 51.12424-2.130177 17.041413-2.130177 31.95265 0 44.73371 2.130177 12.78106 2.130177 25.56212 4.260353 31.95265 0 10.650883 2.130177 17.041413 2.130177 17.041414z" fill="#00c5c2" p-id="6110"></path><path d="M729.52181 989.917173l10.650884 34.082827H1023.486192V499.976537l-87.337244 208.757315-25.56212 93.727774L853.072058 896.189399z" fill="#00c5c2" p-id="6111"></path><path d="M644.314743 755.597739s-127.810601 55.384594-272.662614 46.863887c0 0-76.68636-12.78106-146.982191-46.863887 0 0-161.893428-12.78106-200.236608-123.550248-14.911237-42.603534 55.384594-206.627138 55.384594-206.627137C28.693683 514.887774-11.779673 606.485371 3.131563 653.349258c36.213004 108.639011 200.236608 123.550247 200.236608 123.550247 70.29583 34.082827 146.982191 46.863887 146.982191 46.863887 144.852014 8.520707 272.662615-46.863887 272.662615-46.863887-2.130177 87.337244 57.51477 161.893428 89.46742 195.976255 17.041413-12.78106 44.73371-34.082827 72.426007-63.905301-21.301767 19.17159-38.34318 34.082827-51.12424 42.603534-31.95265-34.082827-91.597597-108.639011-89.467421-195.976254z" fill="#00c5c2" p-id="6112"></path><path d="M904.196298 523.408481c-55.384594 17.041413-85.207067-21.301767-85.207067-21.301767-125.680424-89.46742-264.141908 10.650883-264.141908 10.650883-157.633074-115.029541-281.183321 31.95265-281.183322 31.952651 12.78106-19.17159 21.301767-110.769187 21.301767-110.769188 12.78106-115.029541 61.775124-217.278021 61.775124-217.278021 0-6.39053 2.130177-10.650883 4.260353-14.911237-10.650883 6.39053-23.431943 17.041413-25.56212 36.213004 0 0-46.863887 102.248481-61.775124 217.278021 0 0-8.520707 91.597597-21.301766 110.769187 0 0 123.550247-146.982191 281.183321-31.95265 0 0 140.591661-100.118304 264.141908-10.650883 0 0 29.822473 36.213004 85.207067 21.301767 31.95265 178.934841-48.994064 308.875618-119.289894 383.431802 74.556184-68.165654 176.804664-204.496961 140.591661-404.733569z" fill="#00c5c2" p-id="6113"></path></svg>