<?xml version="1.0" standalone="no"?><!DOCTYPE svg PUBLIC "-//W3C//DTD SVG 1.1//EN" "http://www.w3.org/Graphics/SVG/1.1/DTD/svg11.dtd"><svg t="1560497087619" class="icon" style="" viewBox="0 0 1024 1024" version="1.1" xmlns="http://www.w3.org/2000/svg" p-id="5148" xmlns:xlink="http://www.w3.org/1999/xlink" width="64" height="64"><defs><style type="text/css"></style></defs><path d="M775.466667 561.365333h-1.237334c-12.032-89.386667-81.066667-162.389333-172.501333-187.136 0.725333-3.712 1.109333-7.509333 1.109333-11.392C602.88 327.424 571.733333 298.666667 533.333333 298.666667c-38.4 0-69.546667 28.714667-69.546666 64.170666 0 3.84 0.426667 7.68 1.152 11.392-91.434667 24.746667-160.426667 97.749333-172.501334 187.136h-1.237333c-19.370667 0-35.2 14.592-35.2 32.469334v0.554666c0 17.877333 15.829333 32.469333 35.2 32.469334h484.266667c19.370667 0 35.2-14.592 35.2-32.469334v-0.554666c0-17.877333-15.829333-32.469333-35.2-32.469334z m-274.858667-93.952c-36.522667 8.234667-68.053333 30.378667-86.485333 60.842667a17.066667 17.066667 0 0 1-14.677334 7.936 17.834667 17.834667 0 0 1-8.192-1.962667c-8.106667-4.181333-11.008-13.653333-6.485333-21.12 22.997333-37.973333 62.293333-65.578667 107.946667-75.818666 8.96-2.048 18.090667 3.072 20.266666 11.392 2.176 8.32-3.328 16.725333-12.373333 18.773333z m68.266667-99.84a264.490667 264.490667 0 0 0-71.04 0 30.805333 30.805333 0 0 1-0.384-4.736c0-18.261333 16.085333-33.152 35.882666-33.152 19.797333 0 35.882667 14.890667 35.882667 33.152a30.634667 30.634667 0 0 1-0.384 4.778667z m206.592 292.266667H291.2c-19.370667 0-35.2 14.592-35.2 32.426667v0.597333c0 17.834667 15.829333 32.469333 35.2 32.469333h484.266667c19.370667 0 35.2-14.634667 35.2-32.469333v-0.554667c0-17.877333-15.829333-32.512-35.2-32.512z" p-id="5149" fill="#00c5c2"></path></svg>