<?xml version="1.0" standalone="no"?><!DOCTYPE svg PUBLIC "-//W3C//DTD SVG 1.1//EN" "http://www.w3.org/Graphics/SVG/1.1/DTD/svg11.dtd"><svg t="1560497214615" class="icon" style="" viewBox="0 0 1024 1024" version="1.1" xmlns="http://www.w3.org/2000/svg" p-id="7472" xmlns:xlink="http://www.w3.org/1999/xlink" width="64" height="64"><defs><style type="text/css"></style></defs><path d="M870.4 266.24h-98.304l-54.272-81.92c-20.48-30.72-56.32-49.152-93.184-49.152H399.36c-36.864 0-72.704 18.432-93.184 49.152l-54.272 81.92H153.6C91.136 266.24 40.96 316.416 40.96 378.88v397.312c0 62.464 50.176 112.64 112.64 112.64h716.8c62.464 0 112.64-50.176 112.64-112.64V378.88c0-62.464-50.176-112.64-112.64-112.64zM512 796.672c-140.288 0-253.952-113.664-253.952-253.952S371.712 289.792 512 289.792s253.952 113.664 253.952 253.952c0 139.264-113.664 252.928-253.952 252.928z m344.064-371.712h-45.056c-18.432-1.024-32.768-16.384-31.744-34.816 1.024-17.408 14.336-30.72 31.744-31.744h40.96c18.432-1.024 33.792 13.312 34.816 31.744s-12.288 33.792-30.72 34.816z" p-id="7473" fill="#00c5c2"></path><path d="M512 402.432c-77.824 0-141.312 63.488-141.312 141.312S434.176 684.032 512 684.032 653.312 620.544 653.312 542.72c0-77.824-63.488-140.288-141.312-140.288z" p-id="7474" fill="#00c5c2"></path></svg>