<?xml version="1.0" standalone="no"?><!DOCTYPE svg PUBLIC "-//W3C//DTD SVG 1.1//EN" "http://www.w3.org/Graphics/SVG/1.1/DTD/svg11.dtd"><svg t="1560493876493" class="icon" style="" viewBox="0 0 1024 1024" version="1.1" xmlns="http://www.w3.org/2000/svg" p-id="1848" xmlns:xlink="http://www.w3.org/1999/xlink" width="64" height="64"><defs><style type="text/css"></style></defs><path d="M749.568 40.96c-115.2 0-192.512 65.024-237.568 120.832-0.512 0.512-1.024 0.512-1.536 0C464.896 105.472 388.096 40.96 274.432 40.96 125.952 40.96 5.12 161.792 5.12 310.272c0 71.68 28.16 139.264 78.336 189.952 16.384 19.968 100.864 102.912 152.064 152.576-10.24 11.264-16.384 26.112-16.384 41.984 0 16.384 6.656 32.256 17.92 44.032l40.96 40.96c11.776 11.776 27.648 17.92 44.032 17.92 16.384 0 32.256-6.656 44.032-17.92l40.96-40.96c11.776-11.776 17.92-27.136 17.92-44.032s-6.656-32.256-17.92-44.032l-40.96-40.96c-11.264-11.264-27.136-17.408-43.52-17.408h-0.512c-15.36 0-30.72 5.632-41.472 15.36-68.608-66.56-139.264-137.216-146.432-145.92-1.024-1.536-2.56-3.584-4.096-5.12l-1.024-1.024c-38.912-38.912-60.416-90.112-60.416-145.408 0-113.152 92.16-205.312 205.312-205.312 102.4 0 169.472 68.608 207.36 125.952 2.56 5.632 6.656 10.24 11.776 13.312 7.168 4.608 15.872 6.144 24.064 4.608 8.192-2.048 15.36-6.656 19.968-13.824 38.4-59.392 105.984-130.048 211.456-130.048 113.152 0 205.312 92.16 205.312 205.312 0 54.784-21.504 106.496-59.904 144.896-1.536 1.536-3.072 3.584-4.096 5.632-14.336 17.408-185.856 187.392-310.784 310.272-14.848-7.68-31.744-11.776-49.152-11.776-60.416 0-109.568 49.152-109.568 109.568s49.152 109.568 109.568 109.568c60.416 0 109.568-49.152 109.568-109.568 0-19.456-5.12-37.376-13.824-53.248 139.776-137.216 302.08-298.496 316.416-317.44 49.152-50.688 76.288-117.248 76.288-187.904 0.512-148.48-120.32-269.312-268.8-269.312zM322.56 644.096c2.56 0 4.608 1.024 6.656 2.56l40.96 40.96c3.584 3.584 3.584 9.728 0 13.312l-40.96 40.96c-3.584 3.584-9.728 3.584-13.312 0l-40.96-40.96c-3.584-3.584-3.584-9.728 0-13.312l40.96-40.96c1.536-1.536 4.096-2.56 6.656-2.56z m208.384 281.088c-31.232 0-56.832-25.6-56.832-56.832s25.6-56.832 56.832-56.832 56.832 25.6 56.832 56.832-25.6 56.832-56.832 56.832z" p-id="1849" fill="#00c5c2"></path></svg>