<?xml version="1.0" standalone="no"?><!DOCTYPE svg PUBLIC "-//W3C//DTD SVG 1.1//EN" "http://www.w3.org/Graphics/SVG/1.1/DTD/svg11.dtd"><svg t="1560499258588" class="icon" style="" viewBox="0 0 1024 1024" version="1.1" xmlns="http://www.w3.org/2000/svg" p-id="11772" xmlns:xlink="http://www.w3.org/1999/xlink" width="128" height="128"><defs><style type="text/css"></style></defs><path d="M721.6 868.1H150.4c-35.6 0-64.5-28.9-64.5-64.5V232.3c0-35.6 28.9-64.5 64.5-64.5h571.3c12.9 0 25.4 3.8 36.1 11 5.6 3.8 7 11.3 3.3 16.9-3.8 5.5-11.3 7-16.9 3.3-6.6-4.5-14.4-6.9-22.4-6.9H150.4c-22.1 0-40.1 18-40.1 40.1v571.3c0 22.1 18 40.1 40.1 40.1h571.3c22.1 0 40.1-18 40.1-40.1V529c0-6.7 5.4-12.2 12.2-12.2 6.7 0 12.2 5.4 12.2 12.2v274.6c-0.1 35.6-29 64.5-64.6 64.5z" fill="#00c5c2" p-id="11773"></path><path d="M484.3 320.9H194.6c-6.7 0-12.2-5.4-12.2-12.2 0-6.7 5.4-12.2 12.2-12.2h289.7c6.7 0 12.2 5.4 12.2 12.2-0.1 6.8-5.5 12.2-12.2 12.2zM323.4 404.6H194.6c-6.7 0-12.2-5.4-12.2-12.2 0-6.7 5.4-12.2 12.2-12.2h128.7c6.7 0 12.2 5.4 12.2 12.2 0 6.8-5.4 12.2-12.1 12.2zM452.1 488.3H194.6c-6.7 0-12.2-5.4-12.2-12.2s5.4-12.2 12.2-12.2h257.5c6.7 0 12.2 5.4 12.2 12.2s-5.5 12.2-12.2 12.2zM323.4 572H194.6c-6.7 0-12.2-5.4-12.2-12.2s5.4-12.2 12.2-12.2h128.7c6.7 0 12.2 5.4 12.2 12.2s-5.4 12.2-12.1 12.2zM452.1 655.7H194.6c-6.7 0-12.2-5.4-12.2-12.2s5.4-12.2 12.2-12.2h257.5c6.7 0 12.2 5.4 12.2 12.2s-5.5 12.2-12.2 12.2zM452.1 739.3H194.6c-6.7 0-12.2-5.4-12.2-12.2s5.4-12.2 12.2-12.2h257.5c6.7 0 12.2 5.4 12.2 12.2s-5.5 12.2-12.2 12.2zM679.7 582.2L535.1 453.9l293-330.1c11-12.3 26.1-19.7 42.6-20.7 16.5-0.9 32.3 4.5 44.7 15.5l52.1 46.3c25.5 22.6 27.8 61.8 5.2 87.3l-293 330zM569.4 451.8l108.2 96.1L954.5 236c13.7-15.5 12.3-39.2-3.1-52.9l-52.1-46.3c-7.5-6.7-17.2-10-27.1-9.4-10 0.6-19.2 5-25.8 12.5l-277 311.9zM546.6 499.2l86.8 77L518 618.7l28.6-119.5M532.4 454l-48.6 203.3 196.1-72.4L532.4 454z" fill="#00c5c2" p-id="11774"></path><path d="M940.5 282.3c-2.9 0-5.8-1-8.1-3.1L806 167c-5-4.5-5.5-12.1-1-17.2 4.5-5 12.1-5.5 17.2-1L948.5 261c5 4.5 5.5 12.1 1 17.2-2.4 2.7-5.7 4.1-9 4.1z" fill="#00c5c2" p-id="11775"></path></svg>