<?xml version="1.0" standalone="no"?><!DOCTYPE svg PUBLIC "-//W3C//DTD SVG 1.1//EN" "http://www.w3.org/Graphics/SVG/1.1/DTD/svg11.dtd"><svg t="1560497338874" class="icon" style="" viewBox="0 0 1024 1024" version="1.1" xmlns="http://www.w3.org/2000/svg" p-id="10955" xmlns:xlink="http://www.w3.org/1999/xlink" width="64" height="64"><defs><style type="text/css"></style></defs><path d="M730.372441 292.240108 730.372441 219.099445c0-121.010269-98.104535-219.094325-219.094325-219.094325-121.010269 0-219.114804 98.089176-219.114804 219.094325l0 73.140663L147.013449 292.240108l0 729.650557 729.389451 0L876.4029 292.240108 730.372441 292.240108zM366.112894 510.709825 293.100225 510.709825 293.100225 365.012149l73.012669 0L366.112894 510.709825zM656.914354 292.240108 365.626519 292.240108 365.626519 219.099445c0-38.899815 15.149323-75.470146 42.657707-102.973411 27.508385-27.508385 64.078716-42.657707 102.99389-42.657707 38.879336 0 75.475266 15.149323 102.963172 42.657707 27.523744 27.508385 42.673066 64.073596 42.673066 102.973411L656.914354 292.240108 656.914354 292.240108zM730.669387 510.633028l-73.048508 0L657.620879 365.012149l73.048508 0L730.669387 510.633028z" p-id="10956" fill="#00c5c2"></path></svg>