<?xml version="1.0" standalone="no"?><!DOCTYPE svg PUBLIC "-//W3C//DTD SVG 1.1//EN" "http://www.w3.org/Graphics/SVG/1.1/DTD/svg11.dtd"><svg t="1560497255307" class="icon" style="" viewBox="0 0 1024 1024" version="1.1" xmlns="http://www.w3.org/2000/svg" p-id="8248" xmlns:xlink="http://www.w3.org/1999/xlink" width="64" height="64"><defs><style type="text/css"></style></defs><path d="M29.257143 528.764343l119.1936 78.0288 120.188343-78.116572 115.419428 78.058058 118.111086-77.970286 124.138057 77.853257 117.087086-77.824 113.8688 77.824 120.539428-77.853257v52.0192l-119.661714 77.824-114.629486-77.824-118.315885 77.999543-124.547657-77.824-116.853029 77.824-115.448686-77.999543L149.211429 658.783086 29.257143 580.783543v-52.0192z m0 130.018743l119.1936 78.0288 120.188343-78.087315 115.419428 78.0288 118.111086-77.970285 124.138057 77.882514 117.087086-77.824 113.8688 77.824 120.539428-77.882514v52.0192l-119.661714 77.824-114.629486-77.824-118.315885 78.0288-124.547657-77.824-116.853029 77.824-115.448686-78.0288L149.211429 788.831086 29.257143 710.802286v-52.0192z m175.104-263.694629L366.474971 234.057143l216.795429 127.853714s0 62.376229 7.636114 87.478857c7.636114 25.073371 65.9456 82.3296 65.9456 82.3296l-29.140114 2.545372-124.255086-77.238857-126.7712 99.181714-43.008-25.6 135.548343-129.316572-95.085714-79.784228-135.548343 129.316571-34.230857-55.734857zM716.8 497.371429a102.4 102.4 0 1 1 0-204.8 102.4 102.4 0 0 1 0 204.8z" p-id="8249" fill="#00c5c2"></path></svg>