<?xml version="1.0" standalone="no"?><!DOCTYPE svg PUBLIC "-//W3C//DTD SVG 1.1//EN" "http://www.w3.org/Graphics/SVG/1.1/DTD/svg11.dtd"><svg t="1560241994344" class="icon" style="" viewBox="0 0 1024 1024" version="1.1" xmlns="http://www.w3.org/2000/svg" p-id="2189" xmlns:xlink="http://www.w3.org/1999/xlink" width="64" height="64"><defs><style type="text/css"></style></defs><path d="M512.24719239 467.25817871c87.91809083 0 159.43908692-72.3449707 159.43908691-161.25183105 0.08239747-88.98925782-71.52099609-161.33422852-159.43908692-161.33422852S352.80810547 217.01708983 352.80810547 305.92395019c0 88.98925782 71.52099609 161.33422852 159.43908692 161.33422853z m-18.45703126 235.32714844l146.99707032-197.09472657c-31.97021484-7.82775879-76.05285645-15.8203125-127.88085938-15.82031249-3.54309083 0-93.68591309-6.7565918-187.45422363 33.78295898 0 0-11.86523438 1.15356445-35.18371583 35.18371582-35.67810059 54.79431153-90.39001465 134.71984864-106.53991698 161.33422852-11.28845215 17.46826172-39.79797364 52.56958007-21.25854493 89.48364257 20.35217286 36.74926758 37.82043458 64.59960938 44.57702639 69.29626465h88.16528318c-1.73034668-63.11645508 60.23254395-166.77246094 198.57788087-176.16577149z m347.55249024 18.20983887c-27.10876465-43.91784668-87.42370606-133.15429689-92.28515626-141.22924805-6.3446045-10.46447754-26.20239258-50.75683594-63.28125-61.55090332-4.03747559-1.15356445-9.14611817-2.71911622-15.24353027-4.53186035L529.79785155 702.42053223c134.47265625 7.66296387 200.96740723 106.70471191 200.96740724 176.16577148l80.66711426 0.08239746s8.56933594 0.82397461 50.67443848-71.27380371c15.65551758-37.90283203-1.4831543-54.29992676-20.76416016-86.59973144z" p-id="2190" fill="#00c5c2"></path><path d="M512.16479492 749.22229004c-92.77954102 0-168.00842286 56.85424805-168.00842285 129.44641113h336.09924315c0-72.59216309-75.22888185-129.44641114-168.0908203-129.44641114z" p-id="2191" fill="#00c5c2"></path></svg>