<?xml version="1.0" standalone="no"?><!DOCTYPE svg PUBLIC "-//W3C//DTD SVG 1.1//EN" "http://www.w3.org/Graphics/SVG/1.1/DTD/svg11.dtd"><svg t="1560073521624" class="icon" style="" viewBox="0 0 1024 1024" version="1.1" xmlns="http://www.w3.org/2000/svg" p-id="3458" xmlns:xlink="http://www.w3.org/1999/xlink" width="64" height="64"><defs><style type="text/css"></style></defs><path d="M929.856 810.752C929.856 893.184 742.784 960 512 960s-417.856-66.816-417.856-149.248c0-57.28 90.56-106.944 223.168-131.968l-37.888-54.72a328.32 328.32 0 1 1 465.216 0l-37.952 54.72c132.608 25.024 223.168 74.624 223.168 131.968z m-776 0c0 45.952 138.24 83.584 316.352 88.96l-117.056-169.088c-118.016 14.528-199.296 44.992-199.296 80.128z m554.816-235.264a268.608 268.608 0 1 0-393.344 0L512 870.464l196.672-294.976z m-37.824 155.2l-117.056 169.024c178.048-5.376 316.352-43.008 316.352-88.96 0.064-35.2-81.28-65.6-199.296-80.064zM422.464 392.896a89.6 89.6 0 1 1 179.2 0.128 89.6 89.6 0 0 1-179.2-0.128z" p-id="3459" fill="#00c5c2"></path></svg>