<?xml version="1.0" standalone="no"?><!DOCTYPE svg PUBLIC "-//W3C//DTD SVG 1.1//EN" "http://www.w3.org/Graphics/SVG/1.1/DTD/svg11.dtd"><svg t="1558240170772" class="icon" style="" viewBox="0 0 1024 1024" version="1.1" xmlns="http://www.w3.org/2000/svg" p-id="15024" xmlns:xlink="http://www.w3.org/1999/xlink" width="48" height="48"><defs><style type="text/css"></style></defs><path d="M512 992C246.9056 992 32 777.0944 32 512S246.9056 32 512 32s480 214.9056 480 480-214.9056 480-480 480z m295.8336-290.208c0-26.5344 5.7024-131.2128-77.1072-214.272-55.7184-55.872-127.1424-84.3072-226.8864-88.7232V272L200 474.0992l303.9936 202.1184V550.208c63.3408 1.728 98.8032 14.3616 137.28 31.584 48.9216 21.792 87.552 69.4656 120 120.96l30.4128 49.248h16.32c0-15.936-0.1728-36.1536-0.1728-50.208z" p-id="15025" fill="#00c5c2"></path></svg>