<?xml version="1.0" standalone="no"?><!DOCTYPE svg PUBLIC "-//W3C//DTD SVG 1.1//EN" "http://www.w3.org/Graphics/SVG/1.1/DTD/svg11.dtd"><svg t="1558240030150" class="icon" style="" viewBox="0 0 1024 1024" version="1.1" xmlns="http://www.w3.org/2000/svg" p-id="11591" xmlns:xlink="http://www.w3.org/1999/xlink" width="48" height="48"><defs><style type="text/css"></style></defs><path d="M880 192 144 192c-44.112 0-80 35.888-80 80l0 512c0 44.112 35.888 80 80 80l736 0c44.112 0 80-35.888 80-80L960 272C960 227.888 924.112 192 880 192zM636.496 507.824l289.568-243.84c0.432-0.368 0.624-0.864 0.992-1.264C927.648 265.728 928 268.832 928 272l0 512c0 4.624-0.864 9.008-2.096 13.248L636.496 507.824zM880 224c12.272 0 23.36 4.768 31.84 12.352-2.288 0.576-4.496 1.52-6.416 3.136L512 570.832l-95.824-80.704c-0.24-0.288-0.336-0.64-0.608-0.912-0.672-0.672-1.52-0.976-2.272-1.504L118.56 239.504c-1.92-1.616-4.128-2.56-6.416-3.136C120.64 228.768 131.728 224 144 224L880 224zM96 784 96 272c0-3.184 0.352-6.288 0.944-9.296 0.384 0.4 0.576 0.912 1.008 1.28l282.4 237.824-284.16 284.16C96.176 785.296 96 784.672 96 784zM144 832c-15.056 0-28.352-7.104-37.152-17.984 4.064-0.032 8.112-1.568 11.216-4.672l286.864-286.848 96.768 81.488c0.768 0.64 1.664 0.96 2.496 1.44 0.592 0.336 1.12 0.752 1.744 1.008 1.952 0.8 3.984 1.312 6.048 1.312 0 0 0 0 0 0s0 0 0 0c2.064 0 4.096-0.512 6.048-1.312 0.624-0.256 1.136-0.672 1.744-0.992 0.848-0.48 1.744-0.8 2.528-1.456l89.616-75.456 294.016 294.016c0.4 0.4 0.912 0.544 1.328 0.88C899.52 828.8 890.144 832 880 832L144 832z" p-id="11592" fill="#00c5c2"></path></svg>