<?xml version="1.0" standalone="no"?><!DOCTYPE svg PUBLIC "-//W3C//DTD SVG 1.1//EN" "http://www.w3.org/Graphics/SVG/1.1/DTD/svg11.dtd"><svg t="1558239804518" class="icon" style="" viewBox="0 0 1024 1024" version="1.1" xmlns="http://www.w3.org/2000/svg" p-id="10627" xmlns:xlink="http://www.w3.org/1999/xlink" width="48" height="48"><defs><style type="text/css"></style></defs><path d="M611.2 553.6c70.4-54.4 115.2-140.8 115.2-230.4 0-156.8-128-288-284.8-288s-284.8 128-284.8 284.8c0 92.8 44.8 182.4 115.2 236.8C108.8 624 0 790.4 0 976c0 9.6 9.6 19.2 19.2 19.2h848c9.6 0 19.2-9.6 19.2-19.2 0-188.8-112-355.2-275.2-422.4z m-576 396.8C44.8 780.8 156.8 627.2 320 576c6.4-3.2 12.8-9.6 12.8-16s-3.2-16-9.6-19.2c-76.8-41.6-128-131.2-128-224 0-134.4 112-246.4 246.4-246.4s246.4 112 246.4 249.6c0 89.6-51.2 176-128 220.8-6.4 3.2-9.6 9.6-9.6 19.2 0 6.4 6.4 12.8 12.8 16 160 51.2 275.2 204.8 281.6 377.6H35.2z m777.6-416c54.4-41.6 86.4-108.8 86.4-176 0-89.6-54.4-172.8-134.4-208-9.6-3.2-22.4 0-25.6 9.6s0 22.4 9.6 25.6c67.2 28.8 112 99.2 112 172.8 0 67.2-38.4 131.2-96 163.2-6.4 3.2-9.6 9.6-9.6 19.2 0 6.4 6.4 12.8 12.8 16 131.2 41.6 217.6 160 217.6 297.6 0 9.6 9.6 19.2 19.2 19.2s19.2-9.6 19.2-19.2c-3.2-140.8-86.4-262.4-211.2-320z" p-id="10628" fill="#00c5c2"></path></svg>