<?xml version="1.0" standalone="no"?><!DOCTYPE svg PUBLIC "-//W3C//DTD SVG 1.1//EN" "http://www.w3.org/Graphics/SVG/1.1/DTD/svg11.dtd"><svg t="1559553314367" class="icon" style="" viewBox="0 0 1024 1024" version="1.1" xmlns="http://www.w3.org/2000/svg" p-id="1990" xmlns:xlink="http://www.w3.org/1999/xlink" width="128" height="128"><defs><style type="text/css"></style></defs><path d="M288.256 1024C129.536 1024 0 900.096 0 747.52c0-15.36 12.8-27.648 28.672-27.648s28.672 12.288 28.672 27.648c0 121.856 103.424 221.184 230.912 221.184 127.488 0 230.912-99.328 230.912-221.184 0-15.36 12.8-27.648 28.672-27.648 15.872 0 28.672 12.288 28.672 27.648 0.512 152.576-129.024 276.48-288.256 276.48z" p-id="1991" fill="#00c5c2"></path><path d="M289.28 1024c-24.576 0-49.152-3.072-73.728-9.216-74.752-18.944-137.216-64-175.616-128-38.912-63.488-49.664-138.24-30.208-209.92 19.456-71.68 67.072-131.584 133.632-168.448 13.824-7.68 31.232-3.072 39.424 9.728 8.192 13.312 3.584 30.208-10.24 37.888-53.248 29.696-91.136 77.824-107.008 135.168-15.872 57.344-7.168 116.736 24.064 167.936s80.896 87.552 140.8 102.4c59.904 14.848 121.856 6.656 175.104-23.04 13.824-7.68 31.232-3.072 39.424 9.728 8.192 13.312 3.584 30.208-10.24 37.888-45.056 25.088-94.72 37.888-145.408 37.888z" p-id="1992" fill="#00c5c2"></path><path d="M287.744 1024c-50.688 0-100.864-12.8-144.896-37.888-13.824-7.68-18.432-24.576-10.24-37.888 8.192-13.312 25.6-17.408 39.424-9.728 53.248 29.696 115.2 37.888 175.104 23.04s109.568-51.2 140.8-102.4c31.232-51.2 39.424-110.592 24.064-167.936-15.872-57.344-53.76-104.96-107.008-135.168-13.824-7.68-18.432-24.576-10.24-37.888 8.192-13.312 25.6-17.408 39.424-9.728 66.56 37.376 114.176 97.28 133.632 168.448 19.456 71.68 8.704 145.92-30.208 209.92-38.912 64-101.376 109.056-175.616 128-24.576 6.144-49.664 9.216-74.24 9.216z m-130.048-463.872c-15.872 0-28.672-12.288-28.672-27.648V154.112c0-15.36 12.8-27.648 28.672-27.648s28.672 12.288 28.672 27.648V532.48c0 15.36-12.8 27.648-28.672 27.648z" p-id="1993" fill="#00c5c2"></path><path d="M419.328 560.128c-15.872 0-28.672-12.288-28.672-27.648V154.112c0-15.36 12.8-27.648 28.672-27.648 15.872 0 28.672 12.288 28.672 27.648V532.48c0.512 15.36-12.8 27.648-28.672 27.648z" p-id="1994" fill="#00c5c2"></path><path d="M419.328 180.736c-15.872 0-28.672-12.288-28.672-27.648 0-54.272-46.08-98.304-102.4-98.304s-102.4 44.032-102.4 98.304c0 15.36-12.8 27.648-28.672 27.648s-28.672-12.288-28.672-27.648C129.024 68.608 200.704 0 288.768 0c88.064 0 159.744 68.608 159.744 153.088 0 15.36-13.312 27.648-29.184 27.648z" p-id="1995" fill="#00c5c2"></path><path d="M419.328 210.944H288.768c-15.872 0-28.672-12.288-28.672-27.648 0-15.36 12.8-27.648 28.672-27.648H419.84c15.872 0 28.672 12.288 28.672 27.648 0 15.36-13.312 27.648-29.184 27.648z m0 95.232H288.768c-15.872 0-28.672-12.288-28.672-27.648 0-15.36 12.8-27.648 28.672-27.648H419.84c15.872 0 28.672 12.288 28.672 27.648 0 15.36-13.312 27.648-29.184 27.648z m0 94.208H288.768c-15.872 0-28.672-12.288-28.672-27.648 0-15.36 12.8-27.648 28.672-27.648H419.84c15.872 0 28.672 12.288 28.672 27.648 0 15.36-13.312 27.648-29.184 27.648z m243.2 28.16c-44.032 0-79.872-34.304-79.872-76.288s35.84-76.288 79.872-76.288S742.4 310.272 742.4 352.256s-35.84 76.288-79.872 76.288z m0-97.792c-12.288 0-22.016 9.728-22.016 21.504s9.728 21.504 22.016 21.504 22.016-9.728 22.016-21.504-9.728-21.504-22.016-21.504z m71.68 315.904c-9.728 0-19.456-5.12-25.088-13.824-24.064-39.936-30.72-86.016-18.944-130.56 12.288-44.544 41.984-81.92 83.456-104.96 41.472-23.04 90.112-29.696 136.192-17.92 46.592 11.776 85.504 39.936 109.568 79.872 8.192 13.312 3.584 30.208-10.24 37.888s-31.232 3.072-39.424-9.728c-16.384-27.136-43.008-46.08-74.752-54.272-31.232-8.192-64.512-3.584-92.672 12.288-28.16 15.872-48.128 41.472-56.832 71.68-8.192 30.208-3.584 61.952 12.8 89.088 8.192 13.312 3.584 30.208-10.24 37.888-3.584 1.024-8.704 2.56-13.824 2.56z" p-id="1996" fill="#00c5c2"></path><path d="M864.256 718.336c-31.744 0-62.464-8.192-90.624-23.552-41.472-23.04-71.168-60.416-83.456-104.96-12.288-44.544-5.632-91.136 18.944-130.56 8.192-13.312 25.6-17.408 39.424-9.728s18.432 24.576 10.24 37.888c-16.384 27.136-20.992 58.88-12.8 89.088 8.192 30.208 28.672 55.808 56.832 71.68 28.16 15.872 61.44 19.968 92.672 12.288 31.744-8.192 57.856-27.136 74.752-54.272 8.192-13.312 25.6-17.408 39.424-9.728s18.432 24.576 10.24 37.888c-24.064 39.936-62.976 68.096-109.568 79.872-14.848 2.048-30.208 4.096-46.08 4.096z" p-id="1997" fill="#00c5c2"></path></svg>