<?xml version="1.0" standalone="no"?><!DOCTYPE svg PUBLIC "-//W3C//DTD SVG 1.1//EN" "http://www.w3.org/Graphics/SVG/1.1/DTD/svg11.dtd"><svg t="1559555202560" class="icon" style="" viewBox="0 0 1024 1024" version="1.1" xmlns="http://www.w3.org/2000/svg" p-id="2991" xmlns:xlink="http://www.w3.org/1999/xlink" width="128" height="128"><defs><style type="text/css"></style></defs><path d="M614.084515 295.857265c116.742864 0 211.729216 93.27743 211.729216 207.873398 0 8.44023-0.653893 16.880459-2.001587 25.830295l-4.219091 27.575032 25.320689 11.787464c46.164413 21.500687 75.998905 67.667146 75.998905 117.653607 0 72.104201-59.844993 130.748856-133.36852 130.748856L242.93545 817.325917c-78.0711 0-141.588739-62.282508-141.588739-138.898467 0-66.5016 48.311309-123.837446 114.849748-136.315642l34.632775-6.475482-4.50971-34.888602c-0.402159-2.947122-0.546446-5.857405-0.546446-8.804527 0-49.694819 41.327244-90.149183 92.114954-90.149183 15.096836 0 30.085202 4.002151 43.326784 11.568477l31.94148 18.154475 18.627243-31.6877C469.43609 335.729367 539.286971 295.857265 614.084515 295.857265M614.084515 258.603803c-89.459474 0-170.550351 47.657416-214.422558 122.382305-18.736736-10.69662-39.909965-16.444531-61.772902-16.444531-71.306023 0-129.367393 57.18849-129.367393 127.401622 0 4.511757 0.254803 9.022491 0.837064 13.533224-82.618673 15.497972-145.266501 87.166245-145.266501 172.950004 0 97.133248 80.254835 176.151929 178.844248 176.151929l544.608675 0c94.114494 0 170.619936-75.379804 170.619936-168.002318 0-65.702398-38.780235-124.05541-97.534384-151.413502 1.638313-10.841929 2.437515-21.246907 2.437515-31.432896C863.066169 368.616382 751.343645 258.603803 614.084515 258.603803L614.084515 258.603803z" p-id="2992" fill="#8a8a8a"></path></svg>